<?xml version="1.0" encoding="utf-8"?>
<!-- Generator: Adobe Illustrator 27.5.0, SVG Export Plug-In . SVG Version: 6.00 Build 0)  -->
<svg version="1.1" id="Layer_1" xmlns="http://www.w3.org/2000/svg" xmlns:xlink="http://www.w3.org/1999/xlink" x="0px" y="0px"
	 viewBox="0 0 287 287" style="enable-background:new 0 0 287 287;" xml:space="preserve">
<style type="text/css">
	.st0{fill:#FFFFFF;}
</style>
<path d="M144.16,266.04c-67.52,0-122.45-54.93-122.45-122.45c0-67.52,54.93-122.45,122.45-122.45
	c67.52,0,122.45,54.93,122.45,122.45C266.61,211.11,211.68,266.04,144.16,266.04"/>
<path class="st0" d="M207.8,120.67v71.23h-24.01v-71.23c0-10.64-8.65-19.29-19.29-19.29V77.36
	C188.38,77.36,207.8,96.79,207.8,120.67"/>
<path class="st0" d="M123.83,126.08v24.01c-10.64,0-19.29,8.66-19.29,19.29v22.51H80.52v-22.51
	C80.52,145.51,99.95,126.08,123.83,126.08"/>
<rect x="132.16" y="101.29" class="st0" width="24.01" height="90.61"/>
</svg>
