<?xml version="1.0" encoding="utf-8"?>
<!-- Generator: Adobe Illustrator 27.5.0, SVG Export Plug-In . SVG Version: 6.00 Build 0)  -->
<svg version="1.1" id="Layer_1" xmlns="http://www.w3.org/2000/svg" xmlns:xlink="http://www.w3.org/1999/xlink" x="0px" y="0px"
	 viewBox="0 0 289 289" style="enable-background:new 0 0 289 289;" xml:space="preserve">
<style type="text/css">
	.st0{fill:#FFFFFF;}
</style>
<path class="st0" d="M144.55,21.64C77.03,21.64,22.1,76.57,22.1,144.09s54.93,122.45,122.45,122.45
	c67.52,0,122.45-54.93,122.45-122.45S212.07,21.64,144.55,21.64 M124.22,150.6c-10.64,0-19.29,8.65-19.29,19.29v22.51H80.91v-22.51
	c0-23.88,19.43-43.3,43.3-43.3V150.6z M156.56,192.4h-24.01v-90.61h24.01V192.4z M208.19,192.4h-24.01v-71.23
	c0-10.64-8.65-19.29-19.29-19.29V77.86c23.88,0,43.31,19.43,43.31,43.3V192.4z"/>
</svg>
