<?xml version="1.0" encoding="utf-8"?>
<!-- Generator: Adobe Illustrator 27.5.0, SVG Export Plug-In . SVG Version: 6.00 Build 0)  -->
<svg version="1.1" id="Layer_1" xmlns="http://www.w3.org/2000/svg" xmlns:xlink="http://www.w3.org/1999/xlink" x="0px" y="0px"
	 viewBox="0 0 326 247" style="enable-background:new 0 0 326 247;" xml:space="preserve">
<style type="text/css">
	.st0{fill:#FFFFFF;}
</style>
<path class="st0" d="M227.6,65.54v72.81h-24.54V65.54c0-10.87-8.85-19.72-19.72-19.72V21.28C207.74,21.28,227.6,41.13,227.6,65.54
	 M97.51,115.33v23.01h24.54v-23.01c0-10.87,8.84-19.72,19.72-19.72V71.07C117.36,71.07,97.51,90.93,97.51,115.33 M174.82,45.73
	h-24.54v92.61h24.54V45.73z"/>
<path class="st0" d="M37.56,223.82c-2.87,0-5.42-0.48-7.64-1.45c-2.22-0.97-3.97-2.43-5.25-4.4c-1.28-1.96-1.92-4.43-1.92-7.4
	c0-2.5,0.44-4.61,1.32-6.33c0.88-1.72,2.09-3.12,3.64-4.19c1.54-1.08,3.32-1.89,5.33-2.45c2.01-0.56,4.16-0.93,6.45-1.13
	c2.56-0.23,4.62-0.48,6.18-0.75c1.56-0.26,2.7-0.64,3.41-1.14c0.71-0.5,1.07-1.2,1.07-2.12v-0.15c0-1.5-0.52-2.67-1.55-3.49
	c-1.03-0.82-2.43-1.23-4.19-1.23c-1.9,0-3.42,0.41-4.57,1.23c-1.15,0.82-1.89,1.95-2.2,3.4l-13.22-0.47
	c0.39-2.74,1.4-5.18,3.03-7.34c1.63-2.16,3.88-3.86,6.74-5.1c2.86-1.24,6.3-1.86,10.33-1.86c2.87,0,5.52,0.34,7.94,1.01
	c2.42,0.68,4.53,1.65,6.33,2.93c1.8,1.28,3.19,2.85,4.18,4.7c0.98,1.86,1.48,3.98,1.48,6.36v30.6H50.98v-6.27h-0.35
	c-0.8,1.52-1.82,2.81-3.06,3.87c-1.24,1.06-2.7,1.85-4.37,2.37C41.53,223.55,39.65,223.82,37.56,223.82 M41.98,214.44
	c1.54,0,2.94-0.31,4.18-0.94c1.24-0.62,2.23-1.49,2.97-2.59c0.74-1.1,1.12-2.39,1.12-3.85v-4.28c-0.41,0.21-0.91,0.41-1.48,0.58
	c-0.58,0.18-1.21,0.34-1.89,0.5c-0.68,0.16-1.39,0.29-2.11,0.41s-1.42,0.23-2.08,0.32c-1.35,0.21-2.5,0.55-3.44,1
	c-0.95,0.45-1.67,1.03-2.17,1.74c-0.5,0.71-0.75,1.56-0.75,2.54c0,1.48,0.53,2.62,1.6,3.4C38.99,214.05,40.34,214.44,41.98,214.44"
	/>
<path class="st0" d="M68.61,223.06v-45.02h13.92v8.21H83c0.82-2.97,2.16-5.18,4.02-6.64c1.86-1.45,4.02-2.18,6.48-2.18
	c0.66,0,1.35,0.04,2.05,0.13c0.7,0.09,1.36,0.22,1.96,0.4v12.46c-0.68-0.23-1.58-0.42-2.68-0.56c-1.1-0.14-2.09-0.21-2.95-0.21
	c-1.7,0-3.23,0.38-4.59,1.13c-1.36,0.75-2.42,1.8-3.2,3.14c-0.77,1.34-1.16,2.91-1.16,4.7v24.44H68.61z"/>
<path class="st0" d="M128.16,212.07c-0.31,0.08-0.78,0.17-1.39,0.28c-0.62,0.11-1.2,0.16-1.74,0.16c-0.76,0-1.42-0.11-1.96-0.34
	c-0.55-0.22-0.96-0.61-1.25-1.15c-0.28-0.54-0.43-1.24-0.43-2.12v-20.31h8.12v-10.55h-8.12v-10.79h-14.33v10.79h-5.95v10.55h5.95
	v21.89c-0.04,3.05,0.57,5.58,1.83,7.59c1.26,2.01,3.09,3.49,5.48,4.44c2.39,0.95,5.27,1.34,8.63,1.19c1.72-0.08,3.2-0.27,4.44-0.56
	c1.24-0.29,2.2-0.54,2.89-0.73L128.16,212.07z"/>
<path class="st0" d="M147.98,197.38v25.68h-14.33v-60.03h13.86v23.27h0.5c1.02-2.77,2.68-4.94,5-6.51c2.32-1.56,5.15-2.34,8.52-2.34
	c3.17,0,5.92,0.7,8.27,2.1c2.34,1.4,4.17,3.36,5.46,5.9c1.3,2.54,1.94,5.51,1.92,8.91v28.7h-14.33v-25.88
	c0.02-2.5-0.61-4.45-1.88-5.86c-1.27-1.41-3.06-2.11-5.36-2.11c-1.51,0-2.83,0.33-3.97,0.98c-1.14,0.65-2.03,1.59-2.67,2.8
	C148.33,194.2,148,195.66,147.98,197.38"/>
<path class="st0" d="M224.37,204.01v-3.58c0-3.69-0.54-6.97-1.61-9.83c-1.07-2.86-2.58-5.27-4.51-7.23
	c-1.93-1.95-4.23-3.43-6.89-4.43c-2.66-1-5.59-1.49-8.79-1.49c-4.53,0-8.47,0.97-11.81,2.92c-3.34,1.94-5.93,4.66-7.77,8.15
	c-1.84,3.49-2.76,7.56-2.76,12.21c0,4.79,0.91,8.91,2.74,12.38c1.83,3.47,4.44,6.13,7.85,8c3.41,1.87,7.47,2.8,12.18,2.8
	c3.93,0,7.39-0.6,10.38-1.8c2.99-1.2,5.41-2.89,7.26-5.07c1.85-2.18,3.04-4.74,3.59-7.69l-13.16-0.38c-0.37,1-0.93,1.84-1.67,2.52
	c-0.74,0.68-1.63,1.2-2.67,1.55c-1.03,0.35-2.19,0.53-3.46,0.53c-1.84,0-3.42-0.38-4.75-1.14c-1.33-0.76-2.36-1.83-3.08-3.21
	c-0.72-1.38-1.08-2.99-1.08-4.82v-0.38H224.37z M198.54,188.87c1.27-0.71,2.7-1.07,4.31-1.07c1.58,0,2.98,0.34,4.21,1.01
	c1.22,0.68,2.18,1.61,2.89,2.8c0.7,1.19,1.07,2.55,1.08,4.07h-16.66c0.07-1.45,0.45-2.76,1.15-3.91
	C196.27,190.55,197.27,189.58,198.54,188.87"/>
<path class="st0" d="M227.6,223.06v-45.02h13.92v8.21h0.47c0.82-2.97,2.16-5.18,4.02-6.64c1.86-1.45,4.02-2.18,6.48-2.18
	c0.66,0,1.35,0.04,2.05,0.13c0.7,0.09,1.36,0.22,1.96,0.4v12.46c-0.68-0.23-1.58-0.42-2.68-0.56c-1.1-0.14-2.09-0.21-2.95-0.21
	c-1.7,0-3.23,0.38-4.59,1.13c-1.36,0.75-2.42,1.8-3.2,3.14c-0.77,1.34-1.16,2.91-1.16,4.7v24.44H227.6z"/>
<path class="st0" d="M272.66,223.82c-2.87,0-5.42-0.48-7.64-1.45c-2.22-0.97-3.97-2.43-5.25-4.4c-1.28-1.96-1.92-4.43-1.92-7.4
	c0-2.5,0.44-4.61,1.32-6.33c0.88-1.72,2.09-3.12,3.64-4.19c1.54-1.08,3.32-1.89,5.33-2.45c2.01-0.56,4.16-0.93,6.45-1.13
	c2.56-0.23,4.62-0.48,6.18-0.75c1.56-0.26,2.7-0.64,3.41-1.14c0.71-0.5,1.07-1.2,1.07-2.12v-0.15c0-1.5-0.52-2.67-1.55-3.49
	c-1.03-0.82-2.43-1.23-4.19-1.23c-1.9,0-3.42,0.41-4.57,1.23c-1.15,0.82-1.89,1.95-2.2,3.4l-13.22-0.47
	c0.39-2.74,1.4-5.18,3.03-7.34c1.63-2.16,3.88-3.86,6.74-5.1c2.86-1.24,6.31-1.86,10.33-1.86c2.87,0,5.52,0.34,7.94,1.01
	c2.42,0.68,4.53,1.65,6.33,2.93c1.8,1.28,3.19,2.85,4.18,4.7c0.98,1.86,1.48,3.98,1.48,6.36v30.6h-13.48v-6.27h-0.35
	c-0.8,1.52-1.82,2.81-3.06,3.87c-1.24,1.06-2.7,1.85-4.37,2.37C276.64,223.55,274.75,223.82,272.66,223.82 M277.09,214.44
	c1.54,0,2.94-0.31,4.18-0.94c1.24-0.62,2.23-1.49,2.97-2.59c0.74-1.1,1.12-2.39,1.12-3.85v-4.28c-0.41,0.21-0.91,0.41-1.48,0.58
	c-0.58,0.18-1.21,0.34-1.89,0.5c-0.68,0.16-1.39,0.29-2.11,0.41s-1.42,0.23-2.08,0.32c-1.35,0.21-2.5,0.55-3.44,1
	c-0.95,0.45-1.67,1.03-2.17,1.74c-0.5,0.71-0.75,1.56-0.75,2.54c0,1.48,0.53,2.62,1.6,3.4C274.1,214.05,275.45,214.44,277.09,214.44
	"/>
</svg>
